<?xml version="1.0" encoding="utf-8" ?><svg xmlns="http://www.w3.org/2000/svg" xmlns:xlink="http://www.w3.org/1999/xlink" width="720" height="467" viewBox="0 0 720 467"><clipPath id="cl_3"><rect y="-1.5258789e-05" width="720.00006" height="467"/></clipPath><g clip-path="url(#cl_3)"><path fill="#1357AD" transform="matrix(1.00279 0 0 0.974948 -155.432 -235.937)" d="M332.755 394.057C338.361 383.51 340.849 376.942 347.669 366.082C367.954 334.404 397.141 309.422 431.57 294.269C480.912 272.622 536.9 271.794 586.861 291.972C623.478 306.378 655.498 332.121 676.756 365.363C682.86 374.908 686.983 383.744 691.487 394.057C726.828 393.535 751.906 399.449 782.009 419.627C811.718 439.54 833.992 473.128 840.475 508.432C847.713 545.771 839.564 584.452 817.877 615.698C797.221 645.405 766.036 664.259 730.584 670.666C724.298 671.829 717.938 672.553 711.551 672.834C689.383 673.728 662.465 672.945 639.98 672.97L606.118 673.005C601.785 673.008 584.536 673.957 580.51 670.842C578.118 668.992 577.501 659.596 577.896 656.262C578.52 650.997 579.277 647.919 583.574 644.285L584.104 643.844C590.694 642.609 608.173 643.152 615.743 643.157L671.53 643.151C691.969 643.154 713.7 644.522 733.323 639.356C760.946 631.85 784.417 613.602 798.5 588.682C812.74 563.912 816.467 534.47 808.848 506.933C795.437 458.246 753.085 425.093 704.275 421.989C696.713 421.508 677.676 423.342 671.509 420.44C668.573 419.058 663.072 403.16 660.907 398.602C646.53 368.875 623.318 344.316 594.449 328.286C555.297 306.61 509.194 301.189 466.082 313.193C421.583 325.799 388.728 354.22 366.426 394.078C363.514 399.981 356.907 420.031 351.84 421.189C343.136 423.176 329.971 421.218 320.766 421.99C305.485 423.125 297.155 426.255 283.406 431.044C252.904 445.695 231.289 465.562 219.894 498.42C210.28 525.999 212.122 556.282 225.009 582.492C237.786 608.408 260.409 628.128 287.827 637.248C300.254 641.515 308.973 642.386 321.715 643.123L402.728 643.082C415.064 643.083 428.317 642.73 440.602 643.416C450.191 643.951 451.538 665.319 445.659 670.74C442.305 673.994 430.946 672.983 425.743 672.898C425.163 672.932 424.582 672.952 424.001 672.961C401.396 673.279 378.597 672.912 355.973 672.984C341.384 673.03 325.314 673.545 310.849 672.751C277.995 670.948 246.782 657.074 223.503 633.777C196.271 606.31 183.545 573.022 183.08 534.768C182.231 464.955 234.611 406.896 302.581 395.669C312.826 393.976 322.271 393.967 332.755 394.057Z"/><path fill="#0F3281" transform="matrix(1.00279 0 0 0.974948 -155.432 -235.937)" d="M321.715 643.123L402.728 643.082C415.064 643.083 428.317 642.73 440.602 643.416C450.191 643.951 451.538 665.319 445.659 670.74C442.305 673.994 430.946 672.983 425.743 672.898C432.463 672.113 445.6 674.121 447.164 665.494C448.073 662.262 447.901 649.773 445.405 647.625C438.465 641.655 409.889 643.706 401.917 643.719C382.019 643.798 362.122 643.766 342.225 643.622C337.453 643.622 325.949 644.149 321.715 643.123Z"/><path fill="#0F3281" transform="matrix(1.00279 0 0 0.974948 -155.432 -235.937)" d="M283.406 431.044L283.797 429.843C286.164 428.177 288.191 428.191 290.57 427.199C310.337 418.96 330.28 421.276 350.806 420.467C357.605 420.2 360.863 395.649 366.426 394.078C363.514 399.981 356.907 420.031 351.84 421.189C343.136 423.176 329.971 421.218 320.766 421.99C305.485 423.125 297.155 426.255 283.406 431.044Z"/><path fill="#1357AD" transform="matrix(1.00279 0 0 0.974948 -155.432 -235.937)" d="M469.817 371.203C488.579 360.692 521.488 360.221 542.008 365.945C570.401 373.983 594.41 393.024 608.703 418.841C614.198 428.621 619.171 441.007 620.969 452.146C625.344 481.758 620.012 505.381 603.158 530.219C595.844 540.999 589.581 549.314 584.153 561.349C582.399 565.179 580.924 569.131 579.743 573.175C577.889 579.367 577.126 586.153 574.443 591.953C572.443 594.318 568.814 594.699 566.053 594.896C557.979 595.474 552.116 593.206 552.765 584.169C554.854 555.078 569.65 534.298 586.097 511.598C597.816 495.424 601.31 472.237 596.742 452.382C593.198 437.408 585.86 423.599 575.433 412.282C543.478 377.574 490.395 375.297 456.028 407.798C439.751 423.017 430.254 444.127 429.665 466.403C429.6 473.103 430.218 479.792 431.507 486.368C438.525 515.496 456.701 525.156 467.553 552.458C470.562 560.027 477.953 582.081 475.233 590.755C474.764 592.25 472.318 593.838 470.717 594.312C466.666 595.512 460.645 595.734 456.802 593.636C451.164 590.558 452.12 586.11 450.86 580.777C450.077 577.468 449.095 574.089 447.994 570.901C445.02 562.487 441.155 554.415 436.465 546.823C426.348 530.663 416.412 520.126 410.211 500.964C402.766 477.959 404.133 446.575 415.238 425.009C422.425 404.952 449.655 378.087 469.817 371.203Z"/><path fill="#0F3281" transform="matrix(1.00279 0 0 0.974948 -155.432 -235.937)" d="M415.238 425.009C415.606 427.83 412.253 435.586 411.242 438.756C405.735 456.027 405.95 474.419 409.223 492.103C415.403 525.492 445.462 545.996 451.633 579.448C453.092 587.36 454.175 594.879 464.143 593.577C469.943 592.998 475.427 593.978 474.576 585.842C472.499 565.985 465.543 546.906 454.077 530.522C448.349 522.369 428.123 495.935 431.507 486.368C438.525 515.496 456.701 525.156 467.553 552.458C470.562 560.027 477.953 582.081 475.233 590.755C474.764 592.25 472.318 593.838 470.717 594.312C466.666 595.512 460.645 595.734 456.802 593.636C451.164 590.558 452.12 586.11 450.86 580.777C450.077 577.468 449.095 574.089 447.994 570.901C445.02 562.487 441.155 554.415 436.465 546.823C426.348 530.663 416.412 520.126 410.211 500.964C402.766 477.959 404.133 446.575 415.238 425.009Z"/><path fill="#0F3281" transform="matrix(1.00279 0 0 0.974948 -155.432 -235.937)" d="M469.817 371.203C488.579 360.692 521.488 360.221 542.008 365.945C570.401 373.983 594.41 393.024 608.703 418.841C614.198 428.621 619.171 441.007 620.969 452.146C618.155 449.745 615.745 436.607 613.92 432.26C608.057 417.904 599.347 404.884 588.313 393.988C563.177 369.494 527.725 358.706 493.205 365.045C489.493 365.725 485.906 366.513 482.25 367.425C478.518 368.356 473.577 371.48 469.817 371.203Z"/><path fill="#0F3281" transform="matrix(1.00279 0 0 0.974948 -155.432 -235.937)" d="M468.891 605.117C479.739 604.733 552.953 603.838 558.896 605.615C560.47 606.086 561.607 607.305 562.358 608.723C564.296 612.379 564.399 617.827 563.082 621.699C562.194 624.31 560.752 625.506 558.335 626.679C550.019 627.533 471.26 627.571 467.253 626.114C465.927 625.631 464.752 624.017 464.156 622.777C462.446 619.219 462.443 612.931 463.852 609.193C464.664 607.039 466.931 605.954 468.891 605.117Z"/><path fill="#1357AD" transform="matrix(1.00279 0 0 0.974948 -155.432 -235.937)" d="M468.719 606.257C488.891 605.567 509.578 606.439 529.774 605.992C539.399 605.779 548.666 605.746 558.275 606.314C563.937 611.315 564.387 620.01 558.83 625.225C553.595 625.732 546.637 625.512 541.263 625.5L512.652 625.456L485.403 625.468C480.014 625.467 474.267 625.581 468.922 625.074C463.106 624.521 464.149 614.353 464.856 610.325C465.152 608.635 467.375 607.089 468.719 606.257Z"/><path fill="#0F3281" transform="matrix(1.00279 0 0 0.974948 -155.432 -235.937)" d="M480.42 635.219C487.892 634.811 550.646 634.293 554.247 636.207C556.402 637.352 557.202 641.236 557.509 643.378C558.07 647.296 557.573 651.061 554.991 654.24C553.312 656.308 549.761 656.131 547.336 656.283C524.743 657.19 500.988 656.07 478.333 656.219C472.978 656.254 470.107 652.794 469.901 647.736C469.491 637.673 471.099 635.555 480.42 635.219Z"/><path fill="#1357AD" transform="matrix(1.00279 0 0 0.974948 -155.432 -235.937)" d="M474.961 636.577C498.661 636.079 522.599 636.761 546.315 636.502C557.756 636.378 556.36 641.058 555.811 650.979C554.529 652.881 554.232 653.699 552.284 654.714C548.003 655.821 526.492 655.33 521.026 655.352C507.413 655.396 494.296 655.415 480.634 655.335C471.233 655.28 470.875 649.913 471.238 641.702C471.342 639.346 473.121 637.813 474.961 636.577Z"/><path fill="#0F3281" transform="matrix(1.00279 0 0 0.974948 -155.432 -235.937)" d="M484.599 664.603C495.945 664.17 507.666 664.717 519.052 664.512C526.431 664.379 534.028 664.358 541.377 664.737C544.339 664.89 545.622 666.968 545.383 669.726C544.267 675.863 541.06 679.48 536.329 683.253C526.059 688.943 515.95 689.623 503.961 688.003C494.85 686.772 480.599 679.848 481.655 668.424C481.828 666.555 483.052 665.538 484.599 664.603Z"/><path fill="#1357AD" transform="matrix(1.00279 0 0 0.974948 -155.432 -235.937)" d="M483.673 666.225C489.487 665.544 506.575 665.933 512.949 665.954C520.582 665.979 537.012 665.496 543.976 666.313C543.26 673.534 542.675 677.022 536.408 681.532C524.687 690.523 492.161 690.417 484.205 674.857C483.104 672.705 482.752 668.577 483.673 666.225Z"/></g></svg>